%TF.GenerationSoftware,KiCad,Pcbnew,10.0.4-1.fc44*%
%TF.CreationDate,2026-08-03T21:13:16+05:30*%
%TF.ProjectId,micro-sd-spi-breakout-module,6d696372-6f2d-4736-942d-7370692d6272,V1.0*%
%TF.SameCoordinates,Original*%
%TF.FileFunction,Copper,L2,Bot*%
%TF.FilePolarity,Positive*%
%FSLAX46Y46*%
G04 Gerber Fmt 4.6, Leading zero omitted, Abs format (unit mm)*
G04 Created by KiCad (PCBNEW 10.0.4-1.fc44) date 2026-08-03 21:13:16*
%MOMM*%
%LPD*%
G01*
G04 APERTURE LIST*
%TA.AperFunction,ComponentPad*%
%ADD10R,1.700000X1.700000*%
%TD*%
%TA.AperFunction,ComponentPad*%
%ADD11C,1.700000*%
%TD*%
%TA.AperFunction,ViaPad*%
%ADD12C,0.600000*%
%TD*%
%TA.AperFunction,Conductor*%
%ADD13C,0.300000*%
%TD*%
G04 APERTURE END LIST*
D10*
%TO.P,J1,1,Pin_1_1*%
%TO.N,GND*%
X129255000Y-93785000D03*
D11*
%TO.P,J1,2,Pin_2_2*%
%TO.N,/CD_DET*%
X129255000Y-91245000D03*
%TO.P,J1,3,Pin_3_3*%
%TO.N,/MISO*%
X129255000Y-88705000D03*
%TO.P,J1,4,Pin_4_4*%
%TO.N,/SCK*%
X129255000Y-86165000D03*
%TO.P,J1,5,Pin_5_5*%
%TO.N,/MOSI*%
X129255000Y-83625000D03*
%TO.P,J1,6,Pin_6_6*%
%TO.N,/CS*%
X129255000Y-81085000D03*
%TO.P,J1,7,Pin_7_7*%
%TO.N,SD_3V3*%
X129255000Y-78545000D03*
%TD*%
D12*
%TO.N,/CS*%
X134400000Y-84800000D03*
X136400000Y-84750000D03*
%TO.N,/MOSI*%
X136400000Y-85900000D03*
X134400000Y-85900000D03*
%TO.N,/SCK*%
X142150100Y-88099900D03*
%TO.N,GND*%
X142449900Y-89199900D03*
X142500000Y-91750000D03*
X150900000Y-79900000D03*
X150900000Y-92100000D03*
X142750000Y-81250000D03*
X135750000Y-88250000D03*
X138388823Y-89361177D03*
%TD*%
%TO.N,/CS*%
D13*
X136400000Y-84750000D02*
X134450000Y-84750000D01*
X134450000Y-84750000D02*
X134400000Y-84800000D01*
%TO.N,/MOSI*%
X134400000Y-85900000D02*
X136400000Y-85900000D01*
%TO.N,/SCK*%
X134000000Y-82250000D02*
X141500000Y-82250000D01*
X142150100Y-82900100D02*
X142150100Y-88099900D01*
X131835000Y-86165000D02*
X133000000Y-85000000D01*
X133000000Y-85000000D02*
X133000000Y-83250000D01*
X133000000Y-83250000D02*
X134000000Y-82250000D01*
X129255000Y-86165000D02*
X131835000Y-86165000D01*
X141500000Y-82250000D02*
X142150100Y-82900100D01*
%TD*%
%TA.AperFunction,Conductor*%
%TO.N,GND*%
G36*
X152442539Y-75520185D02*
G01*
X152488294Y-75572989D01*
X152499500Y-75624500D01*
X152499500Y-96375500D01*
X152479815Y-96442539D01*
X152427011Y-96488294D01*
X152375500Y-96499500D01*
X125624500Y-96499500D01*
X125557461Y-96479815D01*
X125511706Y-96427011D01*
X125500500Y-96375500D01*
X125500500Y-78454448D01*
X128104500Y-78454448D01*
X128104500Y-78635551D01*
X128132829Y-78814410D01*
X128188787Y-78986636D01*
X128188788Y-78986639D01*
X128271006Y-79147997D01*
X128377441Y-79294494D01*
X128377445Y-79294499D01*
X128505500Y-79422554D01*
X128505505Y-79422558D01*
X128633287Y-79515396D01*
X128652006Y-79528996D01*
X128757484Y-79582740D01*
X128813360Y-79611211D01*
X128813363Y-79611212D01*
X128899476Y-79639191D01*
X128985591Y-79667171D01*
X129058639Y-79678740D01*
X129145678Y-79692527D01*
X129208813Y-79722456D01*
X129245744Y-79781768D01*
X129244746Y-79851631D01*
X129206136Y-79909863D01*
X129145678Y-79937473D01*
X128985589Y-79962829D01*
X128813363Y-80018787D01*
X128813360Y-80018788D01*
X128652002Y-80101006D01*
X128505505Y-80207441D01*
X128505500Y-80207445D01*
X128377445Y-80335500D01*
X128377441Y-80335505D01*
X128271006Y-80482002D01*
X128188788Y-80643360D01*
X128188787Y-80643363D01*
X128132829Y-80815589D01*
X128104500Y-80994448D01*
X128104500Y-81175551D01*
X128132829Y-81354410D01*
X128188787Y-81526636D01*
X128188788Y-81526639D01*
X128271006Y-81687997D01*
X128377441Y-81834494D01*
X128377445Y-81834499D01*
X128505500Y-81962554D01*
X128505505Y-81962558D01*
X128633287Y-82055396D01*
X128652006Y-82068996D01*
X128757484Y-82122740D01*
X128813360Y-82151211D01*
X128813363Y-82151212D01*
X128899476Y-82179191D01*
X128985591Y-82207171D01*
X129058639Y-82218740D01*
X129145678Y-82232527D01*
X129208813Y-82262456D01*
X129245744Y-82321768D01*
X129244746Y-82391631D01*
X129206136Y-82449863D01*
X129145678Y-82477473D01*
X128985589Y-82502829D01*
X128813363Y-82558787D01*
X128813360Y-82558788D01*
X128652002Y-82641006D01*
X128505505Y-82747441D01*
X128505500Y-82747445D01*
X128377445Y-82875500D01*
X128377441Y-82875505D01*
X128271006Y-83022002D01*
X128188788Y-83183360D01*
X128188787Y-83183363D01*
X128132829Y-83355589D01*
X128104500Y-83534448D01*
X128104500Y-83715551D01*
X128132829Y-83894410D01*
X128188787Y-84066636D01*
X128188788Y-84066639D01*
X128231009Y-84149500D01*
X128256485Y-84199500D01*
X128271006Y-84227997D01*
X128377441Y-84374494D01*
X128377445Y-84374499D01*
X128505500Y-84502554D01*
X128505505Y-84502558D01*
X128527057Y-84518216D01*
X128652006Y-84608996D01*
X128757484Y-84662740D01*
X128813360Y-84691211D01*
X128813363Y-84691212D01*
X128899476Y-84719191D01*
X128985591Y-84747171D01*
X129058639Y-84758740D01*
X129145678Y-84772527D01*
X129208813Y-84802456D01*
X129245744Y-84861768D01*
X129244746Y-84931631D01*
X129206136Y-84989863D01*
X129145678Y-85017473D01*
X128985589Y-85042829D01*
X128813363Y-85098787D01*
X128813360Y-85098788D01*
X128652002Y-85181006D01*
X128505505Y-85287441D01*
X128505500Y-85287445D01*
X128377445Y-85415500D01*
X128377441Y-85415505D01*
X128271006Y-85562002D01*
X128188788Y-85723360D01*
X128188787Y-85723363D01*
X128132829Y-85895589D01*
X128104500Y-86074448D01*
X128104500Y-86255551D01*
X128132829Y-86434410D01*
X128188787Y-86606636D01*
X128188788Y-86606639D01*
X128271006Y-86767997D01*
X128377441Y-86914494D01*
X128377445Y-86914499D01*
X128505500Y-87042554D01*
X128505505Y-87042558D01*
X128633287Y-87135396D01*
X128652006Y-87148996D01*
X128757484Y-87202740D01*
X128813360Y-87231211D01*
X128813363Y-87231212D01*
X128899476Y-87259191D01*
X128985591Y-87287171D01*
X129058639Y-87298740D01*
X129145678Y-87312527D01*
X129208813Y-87342456D01*
X129245744Y-87401768D01*
X129244746Y-87471631D01*
X129206136Y-87529863D01*
X129145678Y-87557473D01*
X128985589Y-87582829D01*
X128813363Y-87638787D01*
X128813360Y-87638788D01*
X128652002Y-87721006D01*
X128505505Y-87827441D01*
X128505500Y-87827445D01*
X128377445Y-87955500D01*
X128377441Y-87955505D01*
X128271006Y-88102002D01*
X128188788Y-88263360D01*
X128188787Y-88263363D01*
X128132829Y-88435589D01*
X128104500Y-88614448D01*
X128104500Y-88795551D01*
X128132829Y-88974410D01*
X128188787Y-89146636D01*
X128188788Y-89146639D01*
X128271006Y-89307997D01*
X128377441Y-89454494D01*
X128377445Y-89454499D01*
X128505500Y-89582554D01*
X128505505Y-89582558D01*
X128633287Y-89675396D01*
X128652006Y-89688996D01*
X128757484Y-89742740D01*
X128813360Y-89771211D01*
X128813363Y-89771212D01*
X128899476Y-89799191D01*
X128985591Y-89827171D01*
X129058639Y-89838740D01*
X129145678Y-89852527D01*
X129208813Y-89882456D01*
X129245744Y-89941768D01*
X129244746Y-90011631D01*
X129206136Y-90069863D01*
X129145678Y-90097473D01*
X128985589Y-90122829D01*
X128813363Y-90178787D01*
X128813360Y-90178788D01*
X128652002Y-90261006D01*
X128505505Y-90367441D01*
X128505500Y-90367445D01*
X128377445Y-90495500D01*
X128377441Y-90495505D01*
X128271006Y-90642002D01*
X128188788Y-90803360D01*
X128188787Y-90803363D01*
X128132829Y-90975589D01*
X128104500Y-91154448D01*
X128104500Y-91335551D01*
X128132829Y-91514410D01*
X128188787Y-91686636D01*
X128188788Y-91686639D01*
X128271006Y-91847997D01*
X128377441Y-91994494D01*
X128377445Y-91994499D01*
X128505500Y-92122554D01*
X128505505Y-92122558D01*
X128633287Y-92215396D01*
X128652006Y-92228996D01*
X128757484Y-92282740D01*
X128813360Y-92311211D01*
X128813363Y-92311212D01*
X128899476Y-92339191D01*
X128985591Y-92367171D01*
X129068429Y-92380291D01*
X129164449Y-92395500D01*
X129164454Y-92395500D01*
X129345551Y-92395500D01*
X129432259Y-92381765D01*
X129524409Y-92367171D01*
X129696639Y-92311211D01*
X129857994Y-92228996D01*
X130004501Y-92122553D01*
X130132553Y-91994501D01*
X130238996Y-91847994D01*
X130321211Y-91686639D01*
X130377171Y-91514409D01*
X130391765Y-91422259D01*
X130405500Y-91335551D01*
X130405500Y-91154448D01*
X130389019Y-91050397D01*
X130377171Y-90975591D01*
X130321211Y-90803361D01*
X130321211Y-90803360D01*
X130292740Y-90747484D01*
X130238996Y-90642006D01*
X130225396Y-90623287D01*
X130132558Y-90495505D01*
X130132554Y-90495500D01*
X130004499Y-90367445D01*
X130004494Y-90367441D01*
X129857997Y-90261006D01*
X129857996Y-90261005D01*
X129857994Y-90261004D01*
X129806300Y-90234664D01*
X129696639Y-90178788D01*
X129696636Y-90178787D01*
X129524410Y-90122829D01*
X129364321Y-90097473D01*
X129301186Y-90067544D01*
X129264255Y-90008232D01*
X129265253Y-89938370D01*
X129303863Y-89880137D01*
X129364321Y-89852527D01*
X129434425Y-89841422D01*
X129524409Y-89827171D01*
X129696639Y-89771211D01*
X129857994Y-89688996D01*
X130004501Y-89582553D01*
X130132553Y-89454501D01*
X130238996Y-89307994D01*
X130321211Y-89146639D01*
X130377171Y-88974409D01*
X130391765Y-88882259D01*
X130405500Y-88795551D01*
X130405500Y-88614448D01*
X130389019Y-88510397D01*
X130377171Y-88435591D01*
X130321211Y-88263361D01*
X130321211Y-88263360D01*
X130292740Y-88207484D01*
X130238996Y-88102006D01*
X130225396Y-88083287D01*
X130132558Y-87955505D01*
X130132554Y-87955500D01*
X130004499Y-87827445D01*
X130004494Y-87827441D01*
X129857997Y-87721006D01*
X129857996Y-87721005D01*
X129857994Y-87721004D01*
X129806300Y-87694664D01*
X129696639Y-87638788D01*
X129696636Y-87638787D01*
X129524410Y-87582829D01*
X129364321Y-87557473D01*
X129301186Y-87527544D01*
X129264255Y-87468232D01*
X129265253Y-87398370D01*
X129303863Y-87340137D01*
X129364321Y-87312527D01*
X129434425Y-87301422D01*
X129524409Y-87287171D01*
X129696639Y-87231211D01*
X129857994Y-87148996D01*
X130004501Y-87042553D01*
X130132553Y-86914501D01*
X130238996Y-86767994D01*
X130282198Y-86683204D01*
X130330173Y-86632409D01*
X130392683Y-86615500D01*
X131894308Y-86615500D01*
X131894309Y-86615500D01*
X131984673Y-86591286D01*
X132008887Y-86584799D01*
X132111614Y-86525489D01*
X133360490Y-85276614D01*
X133382888Y-85237819D01*
X133419796Y-85173893D01*
X133419796Y-85173891D01*
X133419799Y-85173887D01*
X133439921Y-85098789D01*
X133450500Y-85059309D01*
X133450500Y-84720943D01*
X133799500Y-84720943D01*
X133799500Y-84879057D01*
X133836589Y-85017473D01*
X133840423Y-85031783D01*
X133840426Y-85031790D01*
X133919475Y-85168709D01*
X133919481Y-85168717D01*
X134013083Y-85262319D01*
X134046568Y-85323642D01*
X134041584Y-85393334D01*
X134013083Y-85437681D01*
X133919481Y-85531282D01*
X133919475Y-85531290D01*
X133840426Y-85668209D01*
X133840423Y-85668216D01*
X133799500Y-85820943D01*
X133799500Y-85979056D01*
X133840423Y-86131783D01*
X133840426Y-86131790D01*
X133919475Y-86268709D01*
X133919479Y-86268714D01*
X133919480Y-86268716D01*
X134031284Y-86380520D01*
X134031286Y-86380521D01*
X134031290Y-86380524D01*
X134124623Y-86434409D01*
X134168216Y-86459577D01*
X134320943Y-86500500D01*
X134320945Y-86500500D01*
X134479055Y-86500500D01*
X134479057Y-86500500D01*
X134631784Y-86459577D01*
X134768716Y-86380520D01*
X134768721Y-86380514D01*
X134774443Y-86376125D01*
X134839612Y-86350930D01*
X134849931Y-86350500D01*
X135950069Y-86350500D01*
X136017108Y-86370185D01*
X136025557Y-86376125D01*
X136031281Y-86380517D01*
X136031284Y-86380520D01*
X136031287Y-86380521D01*
X136031290Y-86380524D01*
X136124623Y-86434409D01*
X136168216Y-86459577D01*
X136320943Y-86500500D01*
X136320945Y-86500500D01*
X136479055Y-86500500D01*
X136479057Y-86500500D01*
X136631784Y-86459577D01*
X136768716Y-86380520D01*
X136880520Y-86268716D01*
X136959577Y-86131784D01*
X137000500Y-85979057D01*
X137000500Y-85820943D01*
X136959577Y-85668216D01*
X136947210Y-85646795D01*
X136880524Y-85531290D01*
X136880518Y-85531282D01*
X136762969Y-85413733D01*
X136765155Y-85411546D01*
X136732590Y-85366948D01*
X136728435Y-85297202D01*
X136762647Y-85236282D01*
X136764946Y-85234289D01*
X136768713Y-85230521D01*
X136768716Y-85230520D01*
X136880520Y-85118716D01*
X136959577Y-84981784D01*
X137000500Y-84829057D01*
X137000500Y-84670943D01*
X136959577Y-84518216D01*
X136909391Y-84431290D01*
X136880524Y-84381290D01*
X136880518Y-84381282D01*
X136768717Y-84269481D01*
X136768709Y-84269475D01*
X136631790Y-84190426D01*
X136631786Y-84190424D01*
X136631784Y-84190423D01*
X136479057Y-84149500D01*
X136320943Y-84149500D01*
X136168216Y-84190423D01*
X136168209Y-84190426D01*
X136031290Y-84269475D01*
X136025557Y-84273875D01*
X135960388Y-84299070D01*
X135950069Y-84299500D01*
X134767334Y-84299500D01*
X134705334Y-84282887D01*
X134682112Y-84269480D01*
X134631784Y-84240423D01*
X134479057Y-84199500D01*
X134320943Y-84199500D01*
X134168216Y-84240423D01*
X134168209Y-84240426D01*
X134031290Y-84319475D01*
X134031282Y-84319481D01*
X133919481Y-84431282D01*
X133919475Y-84431290D01*
X133840426Y-84568209D01*
X133840423Y-84568216D01*
X133799500Y-84720943D01*
X133450500Y-84720943D01*
X133450500Y-83487965D01*
X133470185Y-83420926D01*
X133486819Y-83400284D01*
X134150284Y-82736819D01*
X134211607Y-82703334D01*
X134237965Y-82700500D01*
X141262035Y-82700500D01*
X141329074Y-82720185D01*
X141349716Y-82736819D01*
X141663281Y-83050384D01*
X141696766Y-83111707D01*
X141699600Y-83138065D01*
X141699600Y-87649969D01*
X141679915Y-87717008D01*
X141673975Y-87725457D01*
X141669575Y-87731190D01*
X141590526Y-87868109D01*
X141590523Y-87868116D01*
X141549600Y-88020843D01*
X141549600Y-88178957D01*
X141572217Y-88263363D01*
X141590523Y-88331683D01*
X141590526Y-88331690D01*
X141669575Y-88468609D01*
X141669579Y-88468614D01*
X141669580Y-88468616D01*
X141781384Y-88580420D01*
X141781386Y-88580421D01*
X141781390Y-88580424D01*
X141840333Y-88614454D01*
X141918316Y-88659477D01*
X142071043Y-88700400D01*
X142071045Y-88700400D01*
X142229155Y-88700400D01*
X142229157Y-88700400D01*
X142381884Y-88659477D01*
X142518816Y-88580420D01*
X142630620Y-88468616D01*
X142709677Y-88331684D01*
X142750600Y-88178957D01*
X142750600Y-88020843D01*
X142709677Y-87868116D01*
X142686196Y-87827445D01*
X142630624Y-87731190D01*
X142630621Y-87731187D01*
X142630620Y-87731184D01*
X142630617Y-87731181D01*
X142626225Y-87725457D01*
X142601030Y-87660288D01*
X142600600Y-87649969D01*
X142600600Y-82840793D01*
X142600600Y-82840791D01*
X142569899Y-82726214D01*
X142569899Y-82726213D01*
X142510589Y-82623486D01*
X141776614Y-81889511D01*
X141725250Y-81859856D01*
X141673888Y-81830201D01*
X141661780Y-81826957D01*
X141649673Y-81823713D01*
X141649670Y-81823712D01*
X141611478Y-81813478D01*
X141559309Y-81799500D01*
X133940691Y-81799500D01*
X133871944Y-81817920D01*
X133826112Y-81830201D01*
X133826107Y-81830204D01*
X133723393Y-81889505D01*
X133723385Y-81889511D01*
X132639513Y-82973383D01*
X132639509Y-82973389D01*
X132580201Y-83076112D01*
X132580200Y-83076117D01*
X132549500Y-83190691D01*
X132549500Y-84762034D01*
X132529815Y-84829073D01*
X132513181Y-84849715D01*
X131684716Y-85678181D01*
X131623393Y-85711666D01*
X131597035Y-85714500D01*
X130392683Y-85714500D01*
X130325644Y-85694815D01*
X130282198Y-85646795D01*
X130238993Y-85562001D01*
X130132558Y-85415505D01*
X130132554Y-85415500D01*
X130004499Y-85287445D01*
X130004494Y-85287441D01*
X129857997Y-85181006D01*
X129857996Y-85181005D01*
X129857994Y-85181004D01*
X129806300Y-85154664D01*
X129696639Y-85098788D01*
X129696636Y-85098787D01*
X129524410Y-85042829D01*
X129364321Y-85017473D01*
X129301186Y-84987544D01*
X129264255Y-84928232D01*
X129265253Y-84858370D01*
X129303863Y-84800137D01*
X129364321Y-84772527D01*
X129434425Y-84761422D01*
X129524409Y-84747171D01*
X129696639Y-84691211D01*
X129857994Y-84608996D01*
X130004501Y-84502553D01*
X130132553Y-84374501D01*
X130238996Y-84227994D01*
X130321211Y-84066639D01*
X130377171Y-83894409D01*
X130391765Y-83802259D01*
X130405500Y-83715551D01*
X130405500Y-83534448D01*
X130387519Y-83420926D01*
X130377171Y-83355591D01*
X130321211Y-83183361D01*
X130321211Y-83183360D01*
X130266567Y-83076117D01*
X130238996Y-83022006D01*
X130203670Y-82973383D01*
X130132558Y-82875505D01*
X130132554Y-82875500D01*
X130004499Y-82747445D01*
X130004494Y-82747441D01*
X129857997Y-82641006D01*
X129857996Y-82641005D01*
X129857994Y-82641004D01*
X129806300Y-82614664D01*
X129696639Y-82558788D01*
X129696636Y-82558787D01*
X129524410Y-82502829D01*
X129364321Y-82477473D01*
X129301186Y-82447544D01*
X129264255Y-82388232D01*
X129265253Y-82318370D01*
X129303863Y-82260137D01*
X129364321Y-82232527D01*
X129434425Y-82221422D01*
X129524409Y-82207171D01*
X129696639Y-82151211D01*
X129857994Y-82068996D01*
X130004501Y-81962553D01*
X130132553Y-81834501D01*
X130238996Y-81687994D01*
X130321211Y-81526639D01*
X130377171Y-81354409D01*
X130391765Y-81262259D01*
X130405500Y-81175551D01*
X130405500Y-80994448D01*
X130389019Y-80890397D01*
X130377171Y-80815591D01*
X130321211Y-80643361D01*
X130321211Y-80643360D01*
X130292740Y-80587484D01*
X130238996Y-80482006D01*
X130225396Y-80463287D01*
X130132558Y-80335505D01*
X130132554Y-80335500D01*
X130004499Y-80207445D01*
X130004494Y-80207441D01*
X129857997Y-80101006D01*
X129857996Y-80101005D01*
X129857994Y-80101004D01*
X129806300Y-80074664D01*
X129696639Y-80018788D01*
X129696636Y-80018787D01*
X129524410Y-79962829D01*
X129364321Y-79937473D01*
X129301186Y-79907544D01*
X129264255Y-79848232D01*
X129265253Y-79778370D01*
X129303863Y-79720137D01*
X129364321Y-79692527D01*
X129434425Y-79681422D01*
X129524409Y-79667171D01*
X129696639Y-79611211D01*
X129857994Y-79528996D01*
X130004501Y-79422553D01*
X130132553Y-79294501D01*
X130238996Y-79147994D01*
X130321211Y-78986639D01*
X130377171Y-78814409D01*
X130391765Y-78722259D01*
X130405500Y-78635551D01*
X130405500Y-78454448D01*
X130389019Y-78350397D01*
X130377171Y-78275591D01*
X130321211Y-78103361D01*
X130321211Y-78103360D01*
X130292740Y-78047484D01*
X130238996Y-77942006D01*
X130225396Y-77923287D01*
X130132558Y-77795505D01*
X130132554Y-77795500D01*
X130004499Y-77667445D01*
X130004494Y-77667441D01*
X129857997Y-77561006D01*
X129857996Y-77561005D01*
X129857994Y-77561004D01*
X129806300Y-77534664D01*
X129696639Y-77478788D01*
X129696636Y-77478787D01*
X129524410Y-77422829D01*
X129345551Y-77394500D01*
X129345546Y-77394500D01*
X129164454Y-77394500D01*
X129164449Y-77394500D01*
X128985589Y-77422829D01*
X128813363Y-77478787D01*
X128813360Y-77478788D01*
X128652002Y-77561006D01*
X128505505Y-77667441D01*
X128505500Y-77667445D01*
X128377445Y-77795500D01*
X128377441Y-77795505D01*
X128271006Y-77942002D01*
X128188788Y-78103360D01*
X128188787Y-78103363D01*
X128132829Y-78275589D01*
X128104500Y-78454448D01*
X125500500Y-78454448D01*
X125500500Y-75624500D01*
X125520185Y-75557461D01*
X125572989Y-75511706D01*
X125624500Y-75500500D01*
X152375500Y-75500500D01*
X152442539Y-75520185D01*
G37*
%TD.AperFunction*%
%TD*%
M02*
