%TF.GenerationSoftware,KiCad,Pcbnew,10.0.4-1.fc44*%
%TF.CreationDate,2026-08-03T21:13:16+05:30*%
%TF.ProjectId,micro-sd-spi-breakout-module,6d696372-6f2d-4736-942d-7370692d6272,V1.0*%
%TF.SameCoordinates,Original*%
%TF.FileFunction,Legend,Top*%
%TF.FilePolarity,Positive*%
%FSLAX46Y46*%
G04 Gerber Fmt 4.6, Leading zero omitted, Abs format (unit mm)*
G04 Created by KiCad (PCBNEW 10.0.4-1.fc44) date 2026-08-03 21:13:16*
%MOMM*%
%LPD*%
G01*
G04 APERTURE LIST*
%ADD10C,0.150000*%
%ADD11C,0.254000*%
%ADD12C,0.060000*%
%ADD13C,0.120000*%
%ADD14C,0.152400*%
G04 APERTURE END LIST*
D10*
X137954819Y-83811904D02*
X138764342Y-83811904D01*
X138764342Y-83811904D02*
X138859580Y-83764285D01*
X138859580Y-83764285D02*
X138907200Y-83716666D01*
X138907200Y-83716666D02*
X138954819Y-83621428D01*
X138954819Y-83621428D02*
X138954819Y-83430952D01*
X138954819Y-83430952D02*
X138907200Y-83335714D01*
X138907200Y-83335714D02*
X138859580Y-83288095D01*
X138859580Y-83288095D02*
X138764342Y-83240476D01*
X138764342Y-83240476D02*
X137954819Y-83240476D01*
X138954819Y-82240476D02*
X138954819Y-82811904D01*
X138954819Y-82526190D02*
X137954819Y-82526190D01*
X137954819Y-82526190D02*
X138097676Y-82621428D01*
X138097676Y-82621428D02*
X138192914Y-82716666D01*
X138192914Y-82716666D02*
X138240533Y-82811904D01*
X137393403Y-90743666D02*
X137441023Y-90791285D01*
X137441023Y-90791285D02*
X137488642Y-90934142D01*
X137488642Y-90934142D02*
X137488642Y-91029380D01*
X137488642Y-91029380D02*
X137441023Y-91172237D01*
X137441023Y-91172237D02*
X137345784Y-91267475D01*
X137345784Y-91267475D02*
X137250546Y-91315094D01*
X137250546Y-91315094D02*
X137060070Y-91362713D01*
X137060070Y-91362713D02*
X136917213Y-91362713D01*
X136917213Y-91362713D02*
X136726737Y-91315094D01*
X136726737Y-91315094D02*
X136631499Y-91267475D01*
X136631499Y-91267475D02*
X136536261Y-91172237D01*
X136536261Y-91172237D02*
X136488642Y-91029380D01*
X136488642Y-91029380D02*
X136488642Y-90934142D01*
X136488642Y-90934142D02*
X136536261Y-90791285D01*
X136536261Y-90791285D02*
X136583880Y-90743666D01*
X137488642Y-89791285D02*
X137488642Y-90362713D01*
X137488642Y-90076999D02*
X136488642Y-90076999D01*
X136488642Y-90076999D02*
X136631499Y-90172237D01*
X136631499Y-90172237D02*
X136726737Y-90267475D01*
X136726737Y-90267475D02*
X136774356Y-90362713D01*
X126236666Y-93259819D02*
X126236666Y-93974104D01*
X126236666Y-93974104D02*
X126189047Y-94116961D01*
X126189047Y-94116961D02*
X126093809Y-94212200D01*
X126093809Y-94212200D02*
X125950952Y-94259819D01*
X125950952Y-94259819D02*
X125855714Y-94259819D01*
X127236666Y-94259819D02*
X126665238Y-94259819D01*
X126950952Y-94259819D02*
X126950952Y-93259819D01*
X126950952Y-93259819D02*
X126855714Y-93402676D01*
X126855714Y-93402676D02*
X126760476Y-93497914D01*
X126760476Y-93497914D02*
X126665238Y-93545533D01*
X138798403Y-90793666D02*
X138846023Y-90841285D01*
X138846023Y-90841285D02*
X138893642Y-90984142D01*
X138893642Y-90984142D02*
X138893642Y-91079380D01*
X138893642Y-91079380D02*
X138846023Y-91222237D01*
X138846023Y-91222237D02*
X138750784Y-91317475D01*
X138750784Y-91317475D02*
X138655546Y-91365094D01*
X138655546Y-91365094D02*
X138465070Y-91412713D01*
X138465070Y-91412713D02*
X138322213Y-91412713D01*
X138322213Y-91412713D02*
X138131737Y-91365094D01*
X138131737Y-91365094D02*
X138036499Y-91317475D01*
X138036499Y-91317475D02*
X137941261Y-91222237D01*
X137941261Y-91222237D02*
X137893642Y-91079380D01*
X137893642Y-91079380D02*
X137893642Y-90984142D01*
X137893642Y-90984142D02*
X137941261Y-90841285D01*
X137941261Y-90841285D02*
X137988880Y-90793666D01*
X137988880Y-90412713D02*
X137941261Y-90365094D01*
X137941261Y-90365094D02*
X137893642Y-90269856D01*
X137893642Y-90269856D02*
X137893642Y-90031761D01*
X137893642Y-90031761D02*
X137941261Y-89936523D01*
X137941261Y-89936523D02*
X137988880Y-89888904D01*
X137988880Y-89888904D02*
X138084118Y-89841285D01*
X138084118Y-89841285D02*
X138179356Y-89841285D01*
X138179356Y-89841285D02*
X138322213Y-89888904D01*
X138322213Y-89888904D02*
X138893642Y-90460332D01*
X138893642Y-90460332D02*
X138893642Y-89841285D01*
X135234419Y-88089266D02*
X134758228Y-88422599D01*
X135234419Y-88660694D02*
X134234419Y-88660694D01*
X134234419Y-88660694D02*
X134234419Y-88279742D01*
X134234419Y-88279742D02*
X134282038Y-88184504D01*
X134282038Y-88184504D02*
X134329657Y-88136885D01*
X134329657Y-88136885D02*
X134424895Y-88089266D01*
X134424895Y-88089266D02*
X134567752Y-88089266D01*
X134567752Y-88089266D02*
X134662990Y-88136885D01*
X134662990Y-88136885D02*
X134710609Y-88184504D01*
X134710609Y-88184504D02*
X134758228Y-88279742D01*
X134758228Y-88279742D02*
X134758228Y-88660694D01*
X134329657Y-87708313D02*
X134282038Y-87660694D01*
X134282038Y-87660694D02*
X134234419Y-87565456D01*
X134234419Y-87565456D02*
X134234419Y-87327361D01*
X134234419Y-87327361D02*
X134282038Y-87232123D01*
X134282038Y-87232123D02*
X134329657Y-87184504D01*
X134329657Y-87184504D02*
X134424895Y-87136885D01*
X134424895Y-87136885D02*
X134520133Y-87136885D01*
X134520133Y-87136885D02*
X134662990Y-87184504D01*
X134662990Y-87184504D02*
X135234419Y-87755932D01*
X135234419Y-87755932D02*
X135234419Y-87136885D01*
X135258019Y-92227966D02*
X134781828Y-92561299D01*
X135258019Y-92799394D02*
X134258019Y-92799394D01*
X134258019Y-92799394D02*
X134258019Y-92418442D01*
X134258019Y-92418442D02*
X134305638Y-92323204D01*
X134305638Y-92323204D02*
X134353257Y-92275585D01*
X134353257Y-92275585D02*
X134448495Y-92227966D01*
X134448495Y-92227966D02*
X134591352Y-92227966D01*
X134591352Y-92227966D02*
X134686590Y-92275585D01*
X134686590Y-92275585D02*
X134734209Y-92323204D01*
X134734209Y-92323204D02*
X134781828Y-92418442D01*
X134781828Y-92418442D02*
X134781828Y-92799394D01*
X135258019Y-91275585D02*
X135258019Y-91847013D01*
X135258019Y-91561299D02*
X134258019Y-91561299D01*
X134258019Y-91561299D02*
X134400876Y-91656537D01*
X134400876Y-91656537D02*
X134496114Y-91751775D01*
X134496114Y-91751775D02*
X134543733Y-91847013D01*
%TO.C,U1*%
D11*
X140300000Y-81247900D02*
X140300000Y-83100000D01*
X140300300Y-80460600D02*
X142400900Y-80460600D01*
X140300300Y-81248000D02*
X140300300Y-80460600D01*
X142350100Y-93210000D02*
X149510100Y-93210000D01*
X142400100Y-77970000D02*
X142400000Y-80460000D01*
X142400900Y-80460600D02*
X142400000Y-80450000D01*
X149568900Y-77970000D02*
X142400100Y-77970000D01*
X155300000Y-77950000D02*
X152310000Y-77950000D01*
X155300000Y-93189900D02*
X152360000Y-93189900D01*
X155300000Y-93189900D02*
X155300000Y-77950000D01*
D12*
X140124800Y-77880000D02*
G75*
G02*
X140064800Y-77880000I-30000J0D01*
G01*
X140064800Y-77880000D02*
G75*
G02*
X140124800Y-77880000I30000J0D01*
G01*
D11*
X141100400Y-82862900D02*
G75*
G02*
X140995800Y-82862900I-52300J0D01*
G01*
X140995800Y-82862900D02*
G75*
G02*
X141100400Y-82862900I52300J0D01*
G01*
%TO.C,C1*%
X136323823Y-87907300D02*
X136323823Y-88707200D01*
X136324223Y-87346800D02*
X136324223Y-86546800D01*
X136634123Y-86237100D02*
X137434123Y-86237100D01*
X137433623Y-89017000D02*
X136633523Y-89017000D01*
X137743423Y-87907300D02*
X137743423Y-88707200D01*
X137743923Y-87346800D02*
X137743923Y-86546800D01*
D12*
X136663823Y-86826900D02*
G75*
G02*
X136603823Y-86826900I-30000J0D01*
G01*
X136603823Y-86826900D02*
G75*
G02*
X136663823Y-86826900I30000J0D01*
G01*
%TO.C,J1*%
D13*
X119105000Y-78115000D02*
X125105000Y-78115000D01*
X119105000Y-78975000D02*
X119105000Y-78115000D01*
X119105000Y-80655000D02*
X125105000Y-80655000D01*
X119105000Y-81515000D02*
X119105000Y-80655000D01*
X119105000Y-83195000D02*
X125105000Y-83195000D01*
X119105000Y-84055000D02*
X119105000Y-83195000D01*
X119105000Y-85735000D02*
X125105000Y-85735000D01*
X119105000Y-86595000D02*
X119105000Y-85735000D01*
X119105000Y-88275000D02*
X125105000Y-88275000D01*
X119105000Y-89135000D02*
X119105000Y-88275000D01*
X119105000Y-90815000D02*
X125105000Y-90815000D01*
X119105000Y-91675000D02*
X119105000Y-90815000D01*
X125105000Y-78975000D02*
X119105000Y-78975000D01*
X125105000Y-81515000D02*
X119105000Y-81515000D01*
X125105000Y-84055000D02*
X119105000Y-84055000D01*
X125105000Y-86595000D02*
X119105000Y-86595000D01*
X125105000Y-89135000D02*
X119105000Y-89135000D01*
X125105000Y-91675000D02*
X119105000Y-91675000D01*
X127865000Y-79815000D02*
X125105000Y-79815000D01*
X127865000Y-82355000D02*
X125105000Y-82355000D01*
X127865000Y-84895000D02*
X125105000Y-84895000D01*
X127865000Y-87435000D02*
X125105000Y-87435000D01*
X127865000Y-89975000D02*
X125105000Y-89975000D01*
X127865000Y-92515000D02*
X125105000Y-92515000D01*
X128095000Y-93355000D02*
X127865000Y-93355000D01*
X128095000Y-94215000D02*
X127865000Y-94215000D01*
X128177642Y-78115000D02*
X127865000Y-78115000D01*
X128177642Y-78975000D02*
X127865000Y-78975000D01*
X128177642Y-80655000D02*
X127865000Y-80655000D01*
X128177642Y-81515000D02*
X127865000Y-81515000D01*
X128177642Y-83195000D02*
X127865000Y-83195000D01*
X128177642Y-84055000D02*
X127865000Y-84055000D01*
X128177642Y-85735000D02*
X127865000Y-85735000D01*
X128177642Y-86595000D02*
X127865000Y-86595000D01*
X128177642Y-88275000D02*
X127865000Y-88275000D01*
X128177642Y-89135000D02*
X127865000Y-89135000D01*
X128177642Y-90815000D02*
X127865000Y-90815000D01*
X128177642Y-91675000D02*
X127865000Y-91675000D01*
X130525000Y-93785000D02*
X130525000Y-95055000D01*
X130525000Y-95055000D02*
X129255000Y-95055000D01*
X119105000Y-93355000D02*
X125105000Y-93355000D01*
X125105000Y-94215000D01*
X119105000Y-94215000D01*
X119105000Y-93355000D01*
G36*
X119105000Y-93355000D02*
G01*
X125105000Y-93355000D01*
X125105000Y-94215000D01*
X119105000Y-94215000D01*
X119105000Y-93355000D01*
G37*
X125105000Y-77165000D02*
X127865000Y-77165000D01*
X127865000Y-95165000D01*
X125105000Y-95165000D01*
X125105000Y-77165000D01*
%TO.C,C2*%
D11*
X137678823Y-87907300D02*
X137678823Y-88707200D01*
X137679223Y-87346800D02*
X137679223Y-86546800D01*
X137989123Y-86237100D02*
X138789123Y-86237100D01*
X138788623Y-89017000D02*
X137988523Y-89017000D01*
X139098423Y-87907300D02*
X139098423Y-88707200D01*
X139098923Y-87346800D02*
X139098923Y-86546800D01*
D12*
X138018823Y-86826900D02*
G75*
G02*
X137958823Y-86826900I-30000J0D01*
G01*
X137958823Y-86826900D02*
G75*
G02*
X138018823Y-86826900I30000J0D01*
G01*
%TO.C,R2*%
D14*
X132519000Y-86537500D02*
X133840200Y-86537500D01*
X132519000Y-87496400D02*
X132519000Y-86537500D01*
X132519000Y-88348800D02*
X132519000Y-89307700D01*
X132519000Y-89307700D02*
X133840200Y-89307700D01*
X133840200Y-86537500D02*
X133840200Y-87496400D01*
X133840200Y-89307700D02*
X133840200Y-88348800D01*
D12*
X132809600Y-87122500D02*
G75*
G02*
X132749600Y-87122500I-30000J0D01*
G01*
X132749600Y-87122500D02*
G75*
G02*
X132809600Y-87122500I30000J0D01*
G01*
%TO.C,R1*%
D14*
X132492600Y-90676200D02*
X132492600Y-91635100D01*
X132492600Y-93446400D02*
X132492600Y-92487500D01*
X133813800Y-90676200D02*
X132492600Y-90676200D01*
X133813800Y-91635100D02*
X133813800Y-90676200D01*
X133813800Y-92487500D02*
X133813800Y-93446400D01*
X133813800Y-93446400D02*
X132492600Y-93446400D01*
D12*
X133583200Y-92861400D02*
G75*
G02*
X133523200Y-92861400I-30000J0D01*
G01*
X133523200Y-92861400D02*
G75*
G02*
X133583200Y-92861400I30000J0D01*
G01*
%TD*%
M02*
